# xmcd
#
# Track frame offsets: 
#        150
#        21505
#        40812
#        59904
#        77084
#        94703
#        114832
#        129355
#        145174
#        161651
#        175802
#        193380
#
# Disc length: 2825 seconds
#
# Revision: 6
# Processed by: cddbd v1.5.2PL0 Copyright (c) Steve Scherf et al.
# Submitted via: ExactAudioCopy v1.1
#
DISCID=a60b070c
DTITLE=Chris Rea - CD04. Electric Memphis Blues
DYEAR=2005
DGENRE=Blues
TTITLE0=Electric Guitar
TTITLE1=Electric Memphis Blues
TTITLE2=All Night Long
TTITLE3=Born Bad
TTITLE4=Let's Start Again
TTITLE5=What I'm Looking For
TTITLE6=Rules Of Love
TTITLE7=What You Done To Me
TTITLE8=Hobo Love Blues
TTITLE9=Pass Me By
TTITLE10=The Soul Of My Father's Shadow
TTITLE11=My Blue World Says Hello
EXTD=YEAR: 2005
EXTT0=
EXTT1=
EXTT2=
EXTT3=
EXTT4=
EXTT5=
EXTT6=
EXTT7=
EXTT8=
EXTT9=
EXTT10=
EXTT11=
PLAYORDER=
